<svg width="359" height="150" viewBox="0 0 359 150" fill="none" xmlns="http://www.w3.org/2000/svg">
<path d="M36.096 28.8C40.768 28.8 44.896 29.696 48.48 31.488C52.064 33.216 55.04 35.648 57.408 38.784C59.84 41.856 61.664 45.44 62.88 49.536C64.096 53.568 64.704 57.856 64.704 62.4C64.704 68.608 63.616 74.272 61.44 79.392C59.264 84.448 56.064 88.48 51.84 91.488C47.616 94.496 42.368 96 36.096 96H12.672C11.328 96 10.176 95.552 9.216 94.656C8.256 93.696 7.776 92.512 7.776 91.104V33.696C7.776 32.288 8.256 31.136 9.216 30.24C10.176 29.28 11.328 28.8 12.672 28.8H36.096ZM35.136 86.784C39.68 86.784 43.36 85.664 46.176 83.424C48.992 81.184 51.04 78.24 52.32 74.592C53.664 70.88 54.336 66.816 54.336 62.4C54.336 59.136 53.952 56.064 53.184 53.184C52.48 50.24 51.328 47.648 49.728 45.408C48.192 43.104 46.208 41.312 43.776 40.032C41.408 38.688 38.528 38.016 35.136 38.016H16.992L17.856 37.152V87.744L17.28 86.784H35.136ZM84.4628 91.104C84.4628 92.512 84.0148 93.696 83.1188 94.656C82.2228 95.552 81.0708 96 79.6628 96C78.3188 96 77.1668 95.552 76.2068 94.656C75.3108 93.696 74.8628 92.512 74.8628 91.104V50.016C74.8628 48.608 75.3108 47.456 76.2068 46.56C77.1668 45.6 78.3188 45.12 79.6628 45.12C81.0708 45.12 82.2228 45.6 83.1188 46.56C84.0148 47.456 84.4628 48.608 84.4628 50.016V91.104ZM79.5668 38.784C77.7108 38.784 76.3668 38.464 75.5348 37.824C74.7028 37.12 74.2868 35.968 74.2868 34.368V32.832C74.2868 31.232 74.7348 30.112 75.6308 29.472C76.5268 28.832 77.8708 28.512 79.6628 28.512C81.5828 28.512 82.9588 28.864 83.7908 29.568C84.6228 30.208 85.0388 31.296 85.0388 32.832V34.368C85.0388 36.032 84.5908 37.184 83.6948 37.824C82.8628 38.464 81.4868 38.784 79.5668 38.784ZM94.4003 88.128C93.8243 87.232 93.5683 86.208 93.6323 85.056C93.6963 83.84 94.3683 82.816 95.6483 81.984C96.5443 81.408 97.4722 81.184 98.4323 81.312C99.4563 81.376 100.416 81.856 101.312 82.752C103.104 84.736 105.088 86.304 107.264 87.456C109.504 88.608 112.192 89.184 115.328 89.184C116.608 89.12 117.92 88.928 119.264 88.608C120.608 88.224 121.76 87.584 122.72 86.688C123.68 85.728 124.16 84.352 124.16 82.56C124.16 80.96 123.648 79.68 122.624 78.72C121.6 77.76 120.256 76.992 118.592 76.416C116.928 75.776 115.136 75.2 113.216 74.688C111.168 74.112 109.088 73.472 106.976 72.768C104.928 72.064 103.072 71.168 101.408 70.08C99.7443 68.928 98.3683 67.456 97.2803 65.664C96.2563 63.872 95.7443 61.664 95.7443 59.04C95.7443 56.032 96.5763 53.44 98.2403 51.264C99.9683 49.088 102.176 47.392 104.864 46.176C107.616 44.96 110.592 44.352 113.792 44.352C115.648 44.352 117.6 44.608 119.648 45.12C121.696 45.568 123.68 46.304 125.6 47.328C127.52 48.352 129.184 49.696 130.592 51.36C131.232 52.192 131.584 53.184 131.648 54.336C131.776 55.488 131.264 56.512 130.112 57.408C129.344 58.048 128.416 58.336 127.328 58.272C126.24 58.208 125.344 57.856 124.64 57.216C123.424 55.68 121.856 54.496 119.936 53.664C118.016 52.768 115.84 52.32 113.408 52.32C112.192 52.32 110.912 52.512 109.568 52.896C108.288 53.216 107.2 53.824 106.304 54.72C105.408 55.616 104.96 56.928 104.96 58.656C104.96 60.256 105.472 61.536 106.496 62.496C107.584 63.456 108.992 64.256 110.72 64.896C112.448 65.536 114.336 66.112 116.384 66.624C118.368 67.136 120.32 67.744 122.24 68.448C124.224 69.152 125.984 70.08 127.52 71.232C129.12 72.32 130.4 73.76 131.36 75.552C132.384 77.28 132.896 79.488 132.896 82.176C132.896 85.312 131.968 88 130.112 90.24C128.32 92.416 126.016 94.08 123.2 95.232C120.448 96.384 117.536 96.96 114.464 96.96C110.816 96.96 107.168 96.32 103.52 95.04C99.9363 93.696 96.8963 91.392 94.4003 88.128ZM165.588 44.352C169.044 44.352 172.116 44.736 174.804 45.504C177.492 46.208 179.572 47.232 181.044 48.576C182.58 49.856 183.348 51.36 183.348 53.088C183.348 54.176 183.028 55.2 182.388 56.16C181.748 57.056 180.788 57.504 179.508 57.504C178.612 57.504 177.844 57.344 177.204 57.024C176.628 56.704 176.084 56.32 175.572 55.872C175.06 55.424 174.42 54.976 173.652 54.528C172.948 54.144 171.892 53.824 170.484 53.568C169.14 53.312 167.924 53.184 166.836 53.184C163.444 53.184 160.5 53.952 158.004 55.488C155.572 57.024 153.652 59.104 152.244 61.728C150.9 64.352 150.228 67.328 150.228 70.656C150.228 73.984 150.9 76.96 152.244 79.584C153.652 82.208 155.54 84.288 157.908 85.824C160.34 87.36 163.156 88.128 166.356 88.128C168.276 88.128 169.844 88 171.06 87.744C172.276 87.424 173.332 87.04 174.228 86.592C175.188 86.016 175.988 85.44 176.628 84.864C177.332 84.224 178.292 83.904 179.508 83.904C180.916 83.904 181.972 84.352 182.676 85.248C183.444 86.08 183.828 87.136 183.828 88.416C183.828 89.824 182.964 91.2 181.236 92.544C179.572 93.824 177.332 94.88 174.516 95.712C171.7 96.544 168.596 96.96 165.204 96.96C160.212 96.96 155.86 95.808 152.148 93.504C148.5 91.2 145.652 88.064 143.604 84.096C141.62 80.128 140.628 75.648 140.628 70.656C140.628 65.6 141.684 61.12 143.796 57.216C145.908 53.248 148.852 50.112 152.628 47.808C156.404 45.504 160.724 44.352 165.588 44.352ZM241.385 70.752C241.385 75.872 240.265 80.416 238.025 84.384C235.785 88.288 232.745 91.36 228.905 93.6C225.065 95.84 220.745 96.96 215.945 96.96C211.145 96.96 206.825 95.84 202.985 93.6C199.145 91.36 196.073 88.288 193.769 84.384C191.529 80.416 190.409 75.872 190.409 70.752C190.409 65.568 191.529 61.024 193.769 57.12C196.073 53.152 199.145 50.048 202.985 47.808C206.825 45.504 211.145 44.352 215.945 44.352C220.745 44.352 225.065 45.504 228.905 47.808C232.745 50.048 235.785 53.152 238.025 57.12C240.265 61.024 241.385 65.568 241.385 70.752ZM231.785 70.752C231.785 67.232 231.081 64.192 229.673 61.632C228.265 59.008 226.345 56.96 223.913 55.488C221.545 53.952 218.889 53.184 215.945 53.184C213.001 53.184 210.313 53.952 207.881 55.488C205.449 56.96 203.529 59.008 202.121 61.632C200.713 64.192 200.009 67.232 200.009 70.752C200.009 74.144 200.713 77.152 202.121 79.776C203.529 82.4 205.449 84.448 207.881 85.92C210.313 87.392 213.001 88.128 215.945 88.128C218.889 88.128 221.545 87.392 223.913 85.92C226.345 84.448 228.265 82.4 229.673 79.776C231.081 77.152 231.785 74.144 231.785 70.752ZM257.051 96C255.643 96 254.491 95.552 253.595 94.656C252.699 93.696 252.251 92.512 252.251 91.104V50.4C252.251 48.992 252.699 47.84 253.595 46.944C254.491 45.984 255.643 45.504 257.051 45.504C258.395 45.504 259.515 45.984 260.411 46.944C261.371 47.84 261.851 48.992 261.851 50.4V61.152L260.891 57.024C261.403 55.232 262.171 53.568 263.195 52.032C264.283 50.496 265.563 49.152 267.035 48C268.507 46.848 270.139 45.952 271.931 45.312C273.787 44.672 275.707 44.352 277.691 44.352C279.355 44.352 280.795 44.8 282.011 45.696C283.227 46.592 283.835 47.712 283.835 49.056C283.835 50.784 283.387 52.064 282.491 52.896C281.595 53.664 280.603 54.048 279.515 54.048C278.555 54.048 277.627 53.856 276.731 53.472C275.835 53.024 274.779 52.8 273.563 52.8C272.219 52.8 270.843 53.152 269.435 53.856C268.027 54.56 266.747 55.616 265.595 57.024C264.443 58.368 263.515 59.968 262.811 61.824C262.171 63.68 261.851 65.76 261.851 68.064V91.104C261.851 92.512 261.371 93.696 260.411 94.656C259.515 95.552 258.395 96 257.051 96ZM331.596 24.96C333.004 24.96 334.156 25.408 335.052 26.304C335.948 27.2 336.396 28.384 336.396 29.856V91.104C336.396 92.512 335.948 93.696 335.052 94.656C334.156 95.552 333.004 96 331.596 96C330.252 96 329.1 95.552 328.14 94.656C327.244 93.696 326.796 92.512 326.796 91.104V84.192L328.812 84.288C328.812 85.44 328.332 86.752 327.372 88.224C326.476 89.632 325.228 91.008 323.628 92.352C322.028 93.696 320.14 94.816 317.964 95.712C315.788 96.544 313.452 96.96 310.956 96.96C306.54 96.96 302.572 95.84 299.052 93.6C295.532 91.296 292.748 88.192 290.7 84.288C288.652 80.32 287.628 75.776 287.628 70.656C287.628 65.536 288.652 61.024 290.7 57.12C292.748 53.152 295.5 50.048 298.956 47.808C302.476 45.504 306.38 44.352 310.668 44.352C313.356 44.352 315.852 44.8 318.156 45.696C320.524 46.592 322.572 47.744 324.3 49.152C326.028 50.56 327.372 52.064 328.332 53.664C329.292 55.2 329.772 56.672 329.772 58.08L326.796 58.368V29.856C326.796 28.448 327.244 27.296 328.14 26.4C329.1 25.44 330.252 24.96 331.596 24.96ZM312.012 88.128C315.084 88.128 317.74 87.36 319.98 85.824C322.284 84.288 324.076 82.208 325.356 79.584C326.636 76.96 327.276 73.984 327.276 70.656C327.276 67.328 326.636 64.352 325.356 61.728C324.076 59.104 322.284 57.024 319.98 55.488C317.676 53.952 315.02 53.184 312.012 53.184C309.068 53.184 306.444 53.952 304.14 55.488C301.9 57.024 300.108 59.104 298.764 61.728C297.484 64.352 296.844 67.328 296.844 70.656C296.844 73.984 297.484 76.96 298.764 79.584C300.108 82.208 301.9 84.288 304.14 85.824C306.444 87.36 309.068 88.128 312.012 88.128Z" fill="#7289DA"/>
<path d="M275.992 126.795C275.096 126.795 274.36 126.507 273.784 125.931C273.272 125.355 273.016 124.683 273.016 123.915V62.7627H278.968V123.915C278.968 124.683 278.68 125.355 278.104 125.931C277.528 126.507 276.824 126.795 275.992 126.795ZM253.144 65.0667C252.376 65.0667 251.704 64.8107 251.128 64.2987C250.552 63.7867 250.264 63.1147 250.264 62.2827C250.264 61.5147 250.552 60.8747 251.128 60.3627C251.704 59.8507 252.376 59.5947 253.144 59.5947H298.84C299.608 59.5947 300.28 59.8507 300.856 60.3627C301.432 60.8747 301.72 61.5467 301.72 62.3787C301.72 63.2107 301.432 63.8827 300.856 64.3947C300.28 64.8427 299.608 65.0667 298.84 65.0667H253.144ZM332.49 127.755C327.626 127.819 323.402 127.051 319.818 125.451C316.234 123.851 312.81 121.451 309.546 118.251C309.226 117.995 308.938 117.675 308.682 117.291C308.49 116.907 308.394 116.459 308.394 115.947C308.394 115.179 308.682 114.475 309.258 113.835C309.898 113.195 310.602 112.875 311.37 112.875C312.138 112.875 312.842 113.195 313.482 113.835C315.978 116.523 318.794 118.571 321.93 119.979C325.13 121.387 328.554 122.091 332.202 122.091C335.274 122.091 337.994 121.611 340.362 120.651C342.794 119.691 344.714 118.315 346.122 116.523C347.53 114.731 348.234 112.651 348.234 110.283C348.234 107.339 347.434 104.971 345.834 103.179C344.234 101.323 342.122 99.8187 339.498 98.6667C336.874 97.4507 333.962 96.3627 330.762 95.4027C328.138 94.6347 325.642 93.7707 323.274 92.8107C320.906 91.7867 318.794 90.5707 316.938 89.1627C315.082 87.6907 313.642 85.8987 312.618 83.7867C311.594 81.6747 311.082 79.1147 311.082 76.1067C311.082 72.7147 311.978 69.7067 313.77 67.0827C315.562 64.4587 318.09 62.4107 321.354 60.9387C324.682 59.4027 328.522 58.6347 332.874 58.6347C336.65 58.6347 340.266 59.2747 343.722 60.5547C347.242 61.8347 350.026 63.7227 352.074 66.2187C353.034 67.2427 353.514 68.1707 353.514 69.0027C353.514 69.6427 353.194 70.2827 352.554 70.9227C351.914 71.5627 351.21 71.8827 350.442 71.8827C349.802 71.8827 349.258 71.6587 348.81 71.2107C347.722 69.8667 346.346 68.6827 344.682 67.6587C343.018 66.5707 341.162 65.7387 339.114 65.1627C337.13 64.5867 335.05 64.2987 332.874 64.2987C329.866 64.2987 327.146 64.7787 324.714 65.7387C322.346 66.6347 320.458 67.9467 319.049 69.6747C317.706 71.4027 317.034 73.4827 317.034 75.9147C317.034 78.6027 317.802 80.8107 319.338 82.5387C320.874 84.2667 322.89 85.7067 325.386 86.8587C327.882 87.9467 330.538 88.9707 333.354 89.9307C336.106 90.6987 338.73 91.5947 341.226 92.6187C343.786 93.5787 346.026 94.7947 347.946 96.2667C349.93 97.7387 351.466 99.5947 352.554 101.835C353.706 104.075 354.281 106.891 354.281 110.283C354.281 113.547 353.354 116.491 351.498 119.115C349.642 121.739 347.082 123.819 343.818 125.355C340.618 126.891 336.842 127.691 332.49 127.755Z" fill="white"/>
</svg>
